<?xml version="1.0" standalone="no"?>
<!DOCTYPE svg PUBLIC "-//W3C//DTD SVG 20010904//EN"
 "http://www.w3.org/TR/2001/REC-SVG-20010904/DTD/svg10.dtd">
<svg version="1.0" xmlns="http://www.w3.org/2000/svg"
 width="260.000000pt" height="260.000000pt" viewBox="0 0 260.000000 260.000000"
 preserveAspectRatio="xMidYMid meet">
<metadata>
Created by potrace 1.14, written by Peter Selinger 2001-2017
</metadata>
<g transform="translate(0.000000,260.000000) scale(0.100000,-0.100000)"
fill="#000000" stroke="none">
<path d="M1405 2192 c-14 -33 -30 -49 -76 -78 -84 -50 -89 -61 -89 -175 0 -77
-3 -99 -16 -110 -14 -12 -20 -9 -41 15 -14 17 -23 37 -20 47 7 27 -8 23 -32
-7 -31 -40 -37 -89 -16 -149 22 -67 14 -95 -27 -95 -31 0 -31 0 -25 45 4 25 3
45 -2 45 -17 0 -76 -47 -88 -70 -28 -55 -9 -165 33 -188 14 -8 14 -12 0 -45
-12 -30 -20 -37 -43 -37 -37 0 -53 16 -53 55 l-1 30 -24 -28 c-32 -36 -33 -99
-5 -180 11 -31 20 -68 20 -82 0 -21 -5 -25 -29 -25 -30 0 -42 20 -53 85 -3 16
-7 12 -23 -20 -29 -57 -27 -192 2 -257 l21 -47 -19 -38 c-36 -69 -2 -160 67
-177 31 -8 31 -24 -1 -32 -25 -6 -59 -2 -102 11 -17 6 -23 3 -23 -8 0 -9 9
-19 20 -22 18 -6 17 -9 -14 -39 -47 -44 -55 -91 -26 -150 25 -53 74 -87 133
-93 35 -4 70 6 197 57 85 34 161 64 168 67 7 3 12 -3 12 -16 0 -31 29 -26 41
8 6 16 18 32 26 35 9 4 103 -27 209 -69 122 -47 207 -75 231 -75 120 1 203
144 133 232 -10 13 -51 37 -91 53 l-72 28 29 15 c66 33 90 83 73 147 -10 36
-54 95 -71 95 -6 0 -28 -19 -49 -43 l-38 -42 -1 28 c0 28 -47 87 -68 87 -5 0
-8 -18 -7 -40 l2 -39 -28 15 c-32 16 -36 36 -14 74 19 33 19 65 -1 106 -16 33
-42 50 -31 19 3 -7 -3 -24 -13 -37 -19 -22 -20 -23 -35 -4 -11 14 -13 34 -8
77 8 81 0 102 -57 143 -36 26 -52 45 -57 67 -3 16 -11 28 -17 26 -18 -6 -19
-92 -2 -126 22 -42 20 -74 -7 -99 -44 -41 -75 -18 -62 45 7 28 7 28 -16 -6
-16 -24 -24 -55 -29 -108 -4 -58 -10 -78 -25 -89 -30 -22 -45 -17 -45 16 0 17
-4 30 -9 30 -18 0 -32 -60 -30 -126 3 -67 -3 -94 -21 -94 -5 0 -12 17 -16 38
l-7 37 -12 -47 c-7 -25 -10 -58 -8 -72 5 -25 4 -26 -20 -17 -48 18 -102 50
-132 77 -23 20 -24 23 -5 10 64 -41 60 -42 60 23 0 33 5 72 11 88 l11 28 13
-35 c8 -23 19 -36 33 -38 29 -4 29 29 2 89 -24 54 -25 97 -3 129 l17 24 6 -23
c11 -49 70 -55 70 -7 0 14 -10 41 -21 61 -30 51 -22 120 18 152 37 30 44 29
41 -9 -3 -27 1 -33 16 -33 32 0 42 28 23 68 -23 47 -21 75 5 117 l22 35 5 -29
c6 -31 35 -56 48 -42 4 4 7 45 5 90 l-3 83 60 52 c33 29 61 62 63 74 5 33 22
23 31 -17 7 -29 5 -44 -12 -76 -27 -52 -27 -81 2 -108 44 -41 75 -18 62 45
l-7 28 23 -33 c15 -23 24 -57 29 -108 8 -78 20 -104 51 -104 14 0 19 7 19 30
0 17 4 30 9 30 19 0 35 -66 32 -136 -1 -46 2 -75 10 -79 14 -10 31 15 25 38
-9 37 14 14 25 -25 10 -37 9 -51 -10 -103 -23 -67 -27 -100 -10 -111 19 -11
43 24 42 61 -1 19 3 35 7 35 11 0 39 -76 42 -114 3 -25 7 -20 43 49 36 70 39
85 40 154 0 57 -5 85 -20 111 l-19 35 -7 -48 c-9 -57 -24 -79 -53 -75 -17 2
-21 9 -19 40 1 20 14 65 28 99 28 69 31 128 10 174 l-13 30 -1 -27 c-1 -38
-11 -58 -27 -58 -22 0 -32 38 -23 84 13 65 10 123 -8 167 -13 33 -18 38 -25
25 -5 -9 -8 -22 -7 -28 5 -43 -23 -52 -59 -18 -19 18 -22 31 -22 103 0 71 -4
90 -30 142 -26 53 -29 56 -24 25 7 -43 -10 -90 -32 -90 -25 0 -84 65 -84 92 0
12 14 46 30 73 33 55 40 118 16 150 -13 19 -15 17 -31 -23z m-45 -372 c0 -5
-4 -10 -10 -10 -5 0 -10 5 -10 10 0 6 5 10 10 10 6 0 10 -4 10 -10z m60 -30
c0 -5 -4 -10 -10 -10 -5 0 -10 5 -10 10 0 6 5 10 10 10 6 0 10 -4 10 -10z
m-195 -90 c3 -5 -1 -10 -10 -10 -9 0 -13 5 -10 10 3 6 8 10 10 10 2 0 7 -4 10
-10z m-75 -100 c0 -5 -5 -10 -11 -10 -5 0 -7 5 -4 10 3 6 8 10 11 10 2 0 4 -4
4 -10z m-170 -290 c0 -5 -5 -10 -11 -10 -5 0 -7 5 -4 10 3 6 8 10 11 10 2 0 4
-4 4 -10z m759 -444 c-2 -2 -26 -6 -54 -10 -34 -4 -43 -3 -30 3 19 9 93 15 84
7z m-629 -36 c0 -5 -5 -10 -11 -10 -5 0 -7 5 -4 10 3 6 8 10 11 10 2 0 4 -4 4
-10z m619 -14 c-3 -4 -63 -28 -154 -61 -48 -19 6 18 61 40 51 21 106 33 93 21z
m-614 -16 c3 -5 1 -10 -4 -10 -6 0 -11 5 -11 10 0 6 2 10 4 10 3 0 8 -4 11
-10z m-110 -60 c4 -6 -20 -10 -65 -10 -45 0 -69 4 -65 10 3 6 33 10 65 10 32
0 62 -4 65 -10z m385 -63 c-36 -34 -93 -77 -128 -95 -73 -39 -83 -36 -14 4 26
15 80 59 120 97 40 38 76 66 80 62 4 -4 -22 -35 -58 -68z m-225 23 c-55 -10
-120 -25 -145 -34 -55 -19 -65 -13 -14 9 56 24 151 43 209 43 42 0 34 -3 -50
-18z m273 -43 c-66 -67 -83 -76 -52 -30 21 33 90 90 112 93 2 0 -25 -28 -60
-63z m-133 7 c-44 -37 -153 -90 -220 -108 -64 -16 -64 -6 0 14 52 16 196 87
215 106 8 8 19 14 25 14 5 -1 -3 -12 -20 -26z m-230 -28 c-44 -12 -91 -26
-105 -30 -24 -8 -24 -7 -5 7 28 21 113 46 155 46 27 0 16 -6 -45 -23z m530
-26 c4 -6 -5 -5 -19 2 -14 6 -26 15 -26 20 0 10 36 -7 45 -22z m210 14 c19 -8
45 -55 45 -84 0 -67 -67 -130 -138 -130 -50 0 -82 34 -82 87 0 89 94 158 175
127z m-918 -24 c68 -41 88 -127 42 -176 -21 -22 -31 -25 -70 -22 -54 6 -91 30
-113 76 -25 52 -17 99 23 129 24 19 82 15 118 -7z m703 -77 c9 -10 -44 8 -98
34 -29 13 -50 28 -47 32 4 7 131 -51 145 -66z m-62 -21 c-11 -5 -138 58 -138
68 0 4 33 -8 73 -28 39 -21 69 -38 65 -40z m-383 28 c-7 -12 -82 -33 -98 -27
-7 2 8 11 33 20 53 18 73 21 65 7z"/>
<path d="M1711 584 c-37 -31 -54 -85 -39 -122 11 -27 11 -27 18 14 11 74 58
122 106 110 15 -4 24 -14 24 -26 0 -11 5 -20 10 -20 19 0 10 39 -12 54 -33 23
-72 19 -107 -10z"/>
<path d="M1747 542 c-17 -19 -23 -58 -9 -65 4 -2 16 15 28 39 22 46 12 60 -19
26z"/>
<path d="M834 587 c81 -50 102 -157 32 -157 -12 0 -28 6 -35 13 -11 10 -13 9
-9 -3 8 -26 53 -35 82 -17 34 23 43 61 22 103 -16 35 -68 74 -96 73 -11 0 -10
-3 4 -12z"/>
<path d="M837 500 c25 -38 43 -44 43 -14 0 18 -36 54 -54 54 -11 0 -8 -10 11
-40z"/>
<path d="M1216 121 c-15 -17 -15 -20 3 -42 l20 -24 22 22 c22 22 22 23 4 43
-22 25 -27 25 -49 1z m43 -5 c9 -10 8 -16 -4 -26 -21 -17 -51 6 -34 26 6 8 15
14 19 14 4 0 13 -6 19 -14z"/>
<path d="M1371 111 c-12 -21 -5 -31 18 -31 14 0 14 2 1 10 -13 8 -12 10 3 10
21 0 23 16 2 24 -8 3 -19 -3 -24 -13z"/>
<path d="M1497 124 c-15 -15 -7 -45 11 -42 9 2 17 12 17 22 0 20 -16 31 -28
20z"/>
<path d="M1550 105 c0 -14 4 -25 9 -25 4 0 6 11 3 25 -2 14 -6 25 -8 25 -2 0
-4 -11 -4 -25z"/>
<path d="M1595 120 c-3 -6 2 -13 11 -17 16 -6 16 -7 -2 -14 -17 -7 -17 -8 4
-8 23 -1 30 13 12 24 -6 4 -8 11 -5 16 4 5 2 9 -4 9 -5 0 -13 -5 -16 -10z"/>
<path d="M1310 101 c11 -22 13 -23 22 -7 5 10 7 20 4 23 -3 4 -6 1 -6 -7 0
-10 -3 -10 -17 1 -15 13 -15 12 -3 -10z"/>
<path d="M1434 100 c0 -9 9 -17 19 -17 14 -2 16 1 8 11 -6 7 -9 15 -6 18 3 2
-1 5 -8 5 -7 0 -13 -8 -13 -17z"/>
<path d="M978 103 c7 -3 16 -2 19 1 4 3 -2 6 -13 5 -11 0 -14 -3 -6 -6z"/>
<path d="M1078 103 c7 -3 16 -2 19 1 4 3 -2 6 -13 5 -11 0 -14 -3 -6 -6z"/>
</g>
</svg>
